<svg xmlns="http://www.w3.org/2000/svg" xmlns:xlink="http://www.w3.org/1999/xlink" width="500" zoomAndPan="magnify" viewBox="0 0 375 374.999991" height="500" preserveAspectRatio="xMidYMid meet" version="1.0"><defs><clipPath id="8610a29341"><path d="M 225 213.695312 L 337.5 213.695312 L 337.5 326.195312 L 225 326.195312 Z M 225 213.695312 " clip-rule="nonzero"/></clipPath><clipPath id="d8528e269e"><path d="M 242.25 213.695312 L 320.25 213.695312 C 324.824219 213.695312 329.210938 215.515625 332.449219 218.75 C 335.683594 221.984375 337.5 226.371094 337.5 230.945312 L 337.5 308.945312 C 337.5 313.519531 335.683594 317.910156 332.449219 321.144531 C 329.210938 324.378906 324.824219 326.195312 320.25 326.195312 L 242.25 326.195312 C 237.675781 326.195312 233.289062 324.378906 230.050781 321.144531 C 226.816406 317.910156 225 313.519531 225 308.945312 L 225 230.945312 C 225 226.371094 226.816406 221.984375 230.050781 218.75 C 233.289062 215.515625 237.675781 213.695312 242.25 213.695312 Z M 242.25 213.695312 " clip-rule="nonzero"/></clipPath><clipPath id="92f365158c"><path d="M 168 45.085938 L 336 45.085938 L 336 212 L 168 212 Z M 168 45.085938 " clip-rule="nonzero"/></clipPath><clipPath id="0617fc5237"><path d="M 263 45.085938 L 336 45.085938 L 336 118 L 263 118 Z M 263 45.085938 " clip-rule="nonzero"/></clipPath><clipPath id="4e839d4308"><path d="M 70.621094 85 L 298 85 L 298 312 L 70.621094 312 Z M 70.621094 85 " clip-rule="nonzero"/></clipPath></defs><rect x="-37.5" width="450" fill="#ffffff" y="-37.499999" height="449.999989" fill-opacity="1"/><rect x="-37.5" width="450" fill="#eef1eb" y="-37.499999" height="449.999989" fill-opacity="1"/><g clip-path="url(#8610a29341)"><g clip-path="url(#d8528e269e)"><path fill="#eef1eb" d="M 225 213.695312 L 337.5 213.695312 L 337.5 326.195312 L 225 326.195312 Z M 225 213.695312 " fill-opacity="1" fill-rule="nonzero"/></g></g><path fill="#a6a6a6" d="M 149.660156 235.003906 C 148.550781 235.003906 147.484375 234.558594 146.683594 233.761719 C 145.574219 232.605469 145.175781 230.964844 145.664062 229.410156 L 168.933594 160.714844 C 169.375 159.339844 170.53125 158.273438 171.953125 157.960938 C 173.371094 157.605469 174.882812 158.050781 175.902344 159.070312 L 221.328125 204.632812 C 222.351562 205.652344 222.792969 207.164062 222.441406 208.582031 C 222.085938 210.003906 221.0625 211.160156 219.6875 211.601562 L 150.949219 234.78125 C 150.503906 234.914062 150.058594 235.003906 149.617188 235.003906 Z M 174.792969 169.863281 L 156.410156 224.082031 L 210.628906 205.828125 L 174.792969 169.90625 Z M 174.792969 169.863281 " fill-opacity="1" fill-rule="nonzero"/><g clip-path="url(#92f365158c)"><path fill="#a6a6a6" d="M 218.398438 211.824219 C 217.289062 211.824219 216.222656 211.378906 215.421875 210.582031 L 169.996094 165.023438 C 168.355469 163.378906 168.355469 160.714844 169.996094 159.070312 L 276.703125 52.457031 C 281.1875 47.882812 287.226562 45.351562 293.707031 45.351562 C 300.191406 45.351562 306.230469 47.882812 310.761719 52.457031 L 328.078125 69.6875 C 332.695312 74.304688 335.183594 80.433594 335.183594 86.914062 C 335.183594 93.351562 332.605469 99.390625 328.078125 103.878906 L 221.375 210.582031 C 220.574219 211.378906 219.507812 211.824219 218.398438 211.824219 Z M 178.921875 162.046875 L 218.398438 201.65625 L 322.171875 97.925781 C 325.148438 94.996094 326.789062 91.089844 326.789062 86.914062 C 326.789062 82.652344 325.148438 78.699219 322.171875 75.679688 L 304.808594 58.453125 C 298.902344 52.457031 288.558594 52.5 282.695312 58.453125 L 178.921875 162.089844 Z M 178.921875 162.046875 " fill-opacity="1" fill-rule="nonzero"/></g><g clip-path="url(#0617fc5237)"><path fill="#a6a6a6" d="M 312.667969 117.554688 C 311.558594 117.554688 310.492188 117.109375 309.695312 116.308594 L 264.269531 70.75 C 263.46875 69.953125 263.023438 68.886719 263.023438 67.777344 C 263.023438 66.667969 263.46875 65.601562 264.269531 64.800781 L 276.746094 52.457031 C 281.230469 47.925781 287.269531 45.398438 293.753906 45.398438 C 300.234375 45.398438 306.273438 47.925781 310.804688 52.5 L 328.121094 69.730469 C 337.535156 79.144531 337.535156 94.464844 328.121094 103.878906 L 315.644531 116.355469 C 314.84375 117.152344 313.78125 117.597656 312.667969 117.597656 Z M 273.195312 67.777344 L 312.667969 107.339844 L 322.128906 97.882812 C 328.253906 91.753906 328.253906 81.765625 322.128906 75.636719 L 304.765625 58.40625 C 298.859375 52.414062 288.511719 52.457031 282.652344 58.40625 L 273.148438 67.820312 Z M 273.195312 67.777344 " fill-opacity="1" fill-rule="nonzero"/></g><g clip-path="url(#4e839d4308)"><path fill="#a6a6a6" d="M 269.507812 311.644531 L 98.460938 311.644531 C 83.144531 311.644531 70.710938 299.257812 70.710938 284.027344 L 70.710938 112.847656 C 70.710938 97.617188 83.144531 85.226562 98.460938 85.226562 L 216.890625 85.226562 C 219.199219 85.226562 221.105469 87.136719 221.105469 89.445312 C 221.105469 91.753906 219.242188 93.664062 216.890625 93.664062 L 98.460938 93.664062 C 87.804688 93.664062 79.144531 102.277344 79.144531 112.847656 L 79.144531 284.027344 C 79.144531 294.59375 87.804688 303.210938 98.460938 303.210938 L 269.507812 303.210938 C 280.164062 303.210938 288.824219 294.59375 288.824219 284.027344 L 288.824219 162.578125 C 288.824219 160.269531 290.6875 158.363281 293.042969 158.363281 C 295.394531 158.363281 297.261719 160.269531 297.261719 162.578125 L 297.261719 284.027344 C 297.261719 299.257812 284.828125 311.644531 269.507812 311.644531 Z M 269.507812 311.644531 " fill-opacity="1" fill-rule="nonzero"/></g></svg>